#!OML:ASF E:/inclinewalkrobotboard/Project1/Captureday1/Session1/subject1.ASF
:FULLY-SPECIFIED
:DEGREES
263
root 0 0 0 2.819982613977382 -4.2559037178703605 2.237622586749318
lowerback 11.902227847538635 1.1535372223195601 -0.17504175964763502
upperback -4.193198414035254 1.4742387918085176 -0.7964131334783618
thorax -11.13191304426836 0.6786489154212794 -1.054748110984633
lowerneck -6.985530049680695 1.3263774990165624 4.273113200988126
upperneck 18.940208396770508 2.7535820482985596 -8.0420855047931
head 7.081715418703258 0.9509128441308642 -3.1219535045887996
rclavicle -1.4181099562262437E-15 -8.323959117605155E-16
rhumerus 17.95327004471998 14.050321294753322 -51.803191935368915
rradius 69.32238767479589
rwrist 23.291593377436765
rhand -32.96254082408782 -49.01671436741797
rfingers 7.125019999999963
rthumb -6.230187094535005 -79.06221574802512
lclavicle 8.898981774926356E-16 9.696673249471182E-16
lhumerus 17.85448821392429 -13.884361252972289 49.53087097387064
lradius 67.33929237190002
lwrist -18.070063328912227
lhand -43.95277456939005 -60.22550952868107
lfingers 7.125019999999957
lthumb -16.78501895346526 -30.781009300596242
rfemur -25.213446719882505 1.6951437677821208 19.87327063700721
rtibia 33.970097870450864
rfoot -29.90260874929627 -16.92691281387641
rtoes -20.084094710515757
lfemur -22.357116818754967 0.7120356106072742 -16.051912976794547
ltibia 32.83100432580536
lfoot -29.98185394692533 7.197250135985718
ltoes -18.764414373968712
264
root 0 0 0 2.8644640417463108 -4.254833950458024 2.209063832646374
lowerback 11.828273363025755 1.1698554692570873 -0.15046564096541193
upperback -4.205747381916946 1.4967752311874256 -0.8024917830515165
thorax -11.097208628862662 0.6888562174716883 -1.0762439703703064
lowerneck -6.971323804829661 1.2992342480132357 4.263182752875963
upperneck 19.035733277866324 2.713133108824275 -8.021017296717249
head 7.112170526775255 0.9328973197432892 -3.117705979326633
rclavicle -1.2749022986979271E-15 -6.953954365026917E-16
rhumerus 17.66910900677113 13.696704857444503 -51.63523944228064
rradius 69.09255664310729
rwrist 23.489654078467147
rhand -32.93884048056104 -48.96882082456982
rfingers 7.125019999999962
rthumb -6.205007850397131 -79.02156503703762
lclavicle 9.649988156973384E-16 1.0042528853538404E-15
lhumerus 17.637388724336667 -13.59776547127333 49.49342783460314
lradius 67.10969939534252
lwrist -18.1879226819282
lhand -43.91077044403724 -60.29014987480143
lfingers 7.125019999999956
lthumb -16.745444407077933 -30.83789917973505
rfemur -24.14036083944748 2.1182264632374066 19.93383029708634
rtibia 31.886497935924684
rfoot -28.550633077666824 -16.2865036740215
rtoes -20.963296979759242
lfemur -20.880423568643423 0.07238115580889148 -15.777248284603552
ltibia 30.93191589844639
lfoot -27.683164414660354 6.139886517966214
ltoes -19.549071037195652
265
root 0 0 0 2.824594077649946 -4.225926548863113 2.236690842659915
lowerback 11.794405063146598 1.1622275254738892 -0.17593365516880144
upperback -4.214214287746773 1.4819922429573367 -0.8087460613799392
thorax -11.086624047137821 0.6822472213302578 -1.0649409831827934
lowerneck -6.944291771382107 1.2830268553997197 4.266295324022164
upperneck 19.202918708808944 2.690723691874407 -8.041940535661636
head 7.164444165503883 0.9201636619899124 -3.128381619694152
rclavicle -1.0189414340433035E-15 -7.372223836659328E-16
rhumerus 17.241620067795154 13.135272566145192 -51.322665444649836
rradius 68.74815387074528
rwrist 23.845528869602006
rhand -32.916926612649846 -48.96343259398089
rfingers 7.125019999999962
rthumb -6.181543635697894 -79.03110458721363
lclavicle 1.0279267742287608E-15 8.678221977718425E-16
lhumerus 17.413110703420855 -13.236334345055672 49.41162960395826
lradius 66.85098024475884
lwrist -18.365886334656672
lhand -43.880331028788845 -60.47301784040844
lfingers 7.125019999999955
lthumb -16.717538854870618 -31.015602989284982
rfemur -24.03680265754399 1.8528764227049264 19.26023861457398
rtibia 34.20330768257642
rfoot -25.528142874782937 -15.532537138514817
rtoes -20.841852422369044
lfemur -19.48999982207311 -0.10456510374930389 -15.41360703143422
ltibia 32.1778564480534
lfoot -24.6057690104812 4.232329154210915
ltoes -20.19102388623776
266
root 0 0 0 2.6916884879565 -4.183283564642368 2.3373465425586257
lowerback 11.810753134503926 1.135755904587554 -0.2644381451105836
upperback -4.215477785573114 1.4349225894287247 -0.8210054144012532
thorax -11.10377284548695 0.6617594919552545 -1.0202219332020253
lowerneck -6.905966255987891 1.28356559704468 4.278199801479375
upperneck 19.39104535728254 2.694095939811853 -8.092268602457372
head 7.221826281482699 0.9171582011995444 -3.147970809431752
rclavicle -7.103240014317798E-16 -9.247648317498934E-16
rhumerus 16.770827180333512 12.497847453383423 -50.938943456329206
rradius 68.36947168146365
rwrist 24.276027184183647
rhand -32.90159718115622 -49.001902885908855
rfingers 7.125019999999962
rthumb -6.165056704082238 -79.09047241951613
lclavicle 1.0656980702533152E-15 6.15475625839902E-16
lhumerus 17.244363350490794 -12.887928227811196 49.29948507646624
lradius 66.6303203028038
lwrist -18.56471560337665
lhand -43.87228242022411 -60.74495710847798
lfingers 7.125019999999955
lthumb -16.711350009606324 -31.28605928321974
rfemur -25.425725720611577 0.8013495775691526 17.766978961859394
rtibia 41.36813480945899
rfoot -20.821244509361744 -14.731606958268056
rtoes -19.35441574604857
lfemur -18.214284765093023 0.31594315031281095 -15.096484683293955
ltibia 37.14040276662131
lfoot -21.193973557848683 1.4819318355508386
ltoes -20.75271058889323
267
root 0 0 0 2.4487003850771574 -4.108358384179353 2.52306037191718
lowerback 11.889223692649624 1.082027831803698 -0.43321049794554145
upperback -4.200070102688919 1.3425647086530388 -0.8357079255230729
thorax -11.147235175248417 0.6217093917785532 -0.9263670035797886
lowerneck -6.8788524160895905 1.3074540600499598 4.2931790696083985
upperneck 19.535272729271615 2.732147763058844 -8.155891534547301
head 7.266165288637538 0.9288868635560988 -3.1692311412672494
rclavicle -4.449785658092122E-16 -1.2256677829879756E-15
rhumerus 16.334445507145105 11.88771319751895 -50.543837830381676
rradius 68.01856208168962
rwrist 24.71385626170047
rhand -32.89589069743728 -49.08167153219212
rfingers 7.125019999999963
rthumb -6.15868265798462 -79.19500308040551
lclavicle 1.0437117960362745E-15 2.8822753288225794E-16
lhumerus 17.18260562813461 -12.637217648839906 49.17634535030703
lradius 66.50877855345483
lwrist -18.74173609148861
lhand -43.89434692499096 -61.065504120200515
lfingers 7.125019999999955
lthumb -16.733985152763303 -31.60864020630824
rfemur -28.377437814417775 -0.7113841269512022 15.854077662928457
rtibia 51.119085628954764
rfoot -15.188564136851614 -13.911504580388227
rtoes -16.403921073510705
lfemur -17.05982465891827 1.4043684015206273 -14.93382015270085
ltibia 46.36917636930636
lfoot -17.35499771719602 -2.271661766140074
ltoes -20.966731109118125
268
root 0 0 0 2.107228503193925 -3.963984138074428 2.758374749116007
lowerback 12.026824546929456 0.985880567277355 -0.6651168937304471
upperback -4.158125805658351 1.1876082894685134 -0.8337181824737411
thorax -11.204428194686574 0.5533730140744446 -0.769990956745437
lowerneck -6.90341662887538 1.3520869792380126 4.305913534331365
upperneck 19.603612994579024 2.8010433602009215 -8.220753302140466
head 7.293064474623298 0.9541655823890048 -3.188019640926317
rclavicle -3.531496353459414E-16 -1.5948702798528382E-15
rhumerus 15.98870809553071 11.389887545593036 -50.20335369005552
rradius 67.74055213435369
rwrist 25.088379098671748
rhand -32.897389569167444 -49.1751534470021
rfingers 7.125019999999963
rthumb -6.159566094321125 -79.31119634471892
lclavicle 8.798936959879009E-16 -4.944934558896894E-17
lhumerus 17.24164879886289 -12.556296043506615 49.07855965215186
lradius 66.52049801762541
lwrist -18.845315234946526
lhand -43.93900599678116 -61.34057882566104
lfingers 7.125019999999955
lthumb -16.778116990211913 -31.888215512531144
rfemur -31.419263002634956 -1.8213237415808843 14.713965901889285
rtibia 58.00849302535137
rfoot -11.208038827142637 -13.219435931840097
rtoes -12.931702073502695
lfemur -16.309325762655586 2.9155254671266744 -15.062182805002324
ltibia 57.59364932026685
lfoot -12.888088895541038 -6.452388032311273
ltoes -19.76135066695297
269
root 0 0 0 1.7715990557211039 -3.776975280351774 2.957755550302953
lowerback 12.17924248009828 0.8645714735420509 -0.8873724733702056
upperback -4.098385772989396 1.0019993684980502 -0.804846071760687
thorax -11.25219664626244 0.47004977181421076 -0.5865091878150752
lowerneck -6.986587889299336 1.3972365458468559 4.309034979316082
upperneck 19.61701538728924 2.8707608145322654 -8.271569759394513
head 7.310498569443193 0.9804958154509241 -3.2007078185801037
rclavicle -4.639745184578477E-16 -1.9255893659590067E-15
rhumerus 15.78800814614816 11.103408245860232 -50.01103797164604
rradius 67.57985590863817
rwrist 25.30043090937147
rhand -32.89772078275744 -49.22533698253523
rfingers 7.125019999999963
rthumb -6.159233519496853 -79.37100996837427
lclavicle 5.7011524482998465E-16 -2.8471283949528317E-16
lhumerus 17.364985830296895 -12.64871816901111 49.0480687768852
lradius 66.63204558677056
lwrist -18.840792388445042
lhand -43.97982206200487 -61.44917331546439
lfingers 7.125019999999956
lthumb -16.818283721012445 -32.00168548210689
rfemur -33.65072642200718 -2.383731304530486 14.430033818419762
rtibia 61.374067675468304
rfoot -9.891802376035402 -13.00999830586377
rtoes -10.047729033382202
lfemur -16.812083432722254 4.301423214940929 -15.42077193681046
ltibia 65.72668279469552
lfoot -9.299052299404098 -9.002566293539454
ltoes -16.605999236338256
